<svg width="120" height="120" viewBox="0 0 120 120" fill="none" xmlns="http://www.w3.org/2000/svg">
  <rect width="120" height="120" fill="#111110"/>
  <line x1="20" y1="0" x2="20" y2="120" stroke="rgba(255,255,255,0.03)" stroke-width="0.5"/>
  <line x1="60" y1="0" x2="60" y2="120" stroke="rgba(255,255,255,0.03)" stroke-width="0.5"/>
  <line x1="100" y1="0" x2="100" y2="120" stroke="rgba(255,255,255,0.03)" stroke-width="0.5"/>
  <line x1="0" y1="40" x2="120" y2="40" stroke="rgba(255,255,255,0.03)" stroke-width="0.5"/>
  <line x1="0" y1="80" x2="120" y2="80" stroke="rgba(255,255,255,0.03)" stroke-width="0.5"/>
  <path d="M 30 16 L 30 90 L 46 72 L 68 98 L 78 90 L 56 64 L 80 64 Z" stroke="#4ade80" stroke-width="2.5" stroke-linejoin="miter" stroke-linecap="square" fill="rgba(74,222,128,0.08)"/>
  <circle cx="42" cy="48" r="2.5" fill="#4ade80"/>
  <circle cx="54" cy="42" r="2" fill="#4ade80"/>
  <line x1="26" y1="12" x2="22" y2="4" stroke="#4ade80" stroke-width="1.5" stroke-linecap="square"/>
  <line x1="30" y1="12" x2="30" y2="2" stroke="#4ade80" stroke-width="1.5" stroke-linecap="square"/>
  <line x1="34" y1="14" x2="40" y2="6" stroke="#4ade80" stroke-width="1.5" stroke-linecap="square"/>
  <circle cx="30" cy="16" r="8" stroke="rgba(74,222,128,0.3)" stroke-width="0.75" stroke-dasharray="2 2" fill="none"/>
  <text x="86" y="110" fill="rgba(255,255,255,0.12)" font-size="7" font-family="monospace">x:30 y:16</text>
</svg>
